<svg width="32" height="32" viewBox="0 0 32 32" fill="none" xmlns="http://www.w3.org/2000/svg">
<path d="M14 8V7C13.4477 7 13 7.44772 13 8H14ZM18 8H19C19 7.44772 18.5523 7 18 7V8ZM14 13V14C14.5523 14 15 13.5523 15 13H14ZM7 17H6C6 17.5523 6.44772 18 7 18V17ZM25 17V18C25.5523 18 26 17.5523 26 17H25ZM18 13H17C17 13.5523 17.4477 14 18 14V13ZM14 9H18V7H14V9ZM15 13V8H13V13H15ZM8 14H14V12H8V14ZM8 14V12C6.89543 12 6 12.8954 6 14H8ZM8 17V14H6V17H8ZM25 16H7V18H25V16ZM24 14V17H26V14H24ZM24 14H26C26 12.8954 25.1046 12 24 12V14ZM18 14H24V12H18V14ZM17 8V13H19V8H17Z" fill="#455467"/>
<path d="M9 17H23V22C23 23.1046 22.1046 24 21 24H11C9.89543 24 9 23.1046 9 22V17Z" stroke="#455467" stroke-width="2" stroke-linejoin="round"/>
<path d="M13.5 23.5V21.5" stroke="#455467" stroke-width="2" stroke-linecap="round"/>
<path d="M19 23.5V21.5" stroke="#455467" stroke-width="2" stroke-linecap="round"/>
</svg>
