<svg width="18" height="18" viewBox="0 0 18 18" fill="none" xmlns="http://www.w3.org/2000/svg">
<path id="&#229;&#189;&#162;&#231;&#138;&#182;&#231;&#187;&#147;&#229;&#144;&#136;" fill-rule="evenodd" clip-rule="evenodd" d="M14.4415 13.4583C17.0861 10.3152 16.9292 5.61607 13.9707 2.6576C10.8465 -0.466594 5.78117 -0.466595 2.65697 2.6576C-0.467228 5.78179 -0.467228 10.8471 2.65697 13.9713C5.61544 16.9298 10.3146 17.0867 13.4577 14.4421L16.057 17.0414C16.3287 17.3131 16.7691 17.3131 17.0408 17.0414C17.3125 16.7697 17.3125 16.3293 17.0408 16.0576L14.4415 13.4583ZM12.9868 12.9875C10.406 15.5684 6.2216 15.5684 3.64075 12.9875C1.0599 10.4067 1.0599 6.22226 3.64075 3.6414C6.2216 1.06055 10.406 1.06055 12.9868 3.6414C15.5677 6.22226 15.5677 10.4067 12.9868 12.9875Z" fill="white"/>
</svg>
