<?xml version="1.0" standalone="no"?><!DOCTYPE svg PUBLIC "-//W3C//DTD SVG 1.1//EN" "http://www.w3.org/Graphics/SVG/1.1/DTD/svg11.dtd"><svg t="1664432619551" class="icon" viewBox="0 0 1024 1024" version="1.1" xmlns="http://www.w3.org/2000/svg" p-id="2241" xmlns:xlink="http://www.w3.org/1999/xlink" width="64" height="64"><path d="M512 886.98749961c-206.775 0-375.00000029-168.22500029-375.00000029-374.99999942s168.22500029-375.00000029 375.00000029-375.00000029 375.00000029 168.22500029 375.00000029 375.0000003c0 48.825-9.26250029 96.3624999-27.52500058 141.27499951a37.53749971 37.53749971 0 0 1-48.8750001 20.60000068 37.5249999 37.5249999 0 0 1-20.61249961-48.8750001A298.1750001 298.1750001 0 0 0 811.99999971 511.9875002c0-165.41250029-134.58750029-299.99999971-299.99999971-300.00000059s-299.99999971 134.58750029-299.99999971 300.00000058 134.58750029 299.99999971 299.99999971 299.99999971c46.87499971 0 91.7499999-10.50000029 133.3625001-31.18749961a37.50000029 37.50000029 0 0 1 33.40000019 67.1625A371.49999961 371.49999961 0 0 1 512 886.98749961" fill="#405469" p-id="2242"></path><path d="M512 386.98750039c-68.92499971 0-124.9999998 56.0750001-124.9999998 124.9999998s56.0750001 124.9999998 124.9999998 124.99999981a124.9999998 124.9999998 0 0 0 124.9999998-124.9999998c0-68.92499971-56.0750001-124.9999998-124.9999998-124.99999981m0 324.99999932c-110.27499961 0-200.00000039-89.7249999-200.00000039-199.99999951s89.7249999-200.00000039 200.00000039-200.00000039 200.00000039 89.7249999 200.00000039 200.00000039a199.95000029 199.95000029 0 0 1-200.00000039 199.99999951" fill="#405469" p-id="2243"></path><path d="M734.6875001 749.9999999c-6.87499981 0-13.5624999-0.675-20.00000039-1.99999951C668.22499971 738.4000001 636.9999998 697.0000001 636.9999998 644.99999961V349.4875001a37.50000029 37.50000029 0 1 1 75.00000059 0v295.4999997c0 9.6625002 2.3124999 26.34999961 17.87499932 29.5750002 17.2000002 3.49999981 43.35000029-10.72500029 60.42500068-50.29999981a37.5125001 37.5125001 0 0 1 68.87499961 29.71249981c-29.35000019 67.95-80.47500029 96.03749971-124.49999971 96.03749971" fill="#405469" p-id="2244"></path></svg>