<?xml version="1.0" standalone="no"?><!DOCTYPE svg PUBLIC "-//W3C//DTD SVG 1.1//EN" "http://www.w3.org/Graphics/SVG/1.1/DTD/svg11.dtd"><svg t="1664432571137" class="icon" viewBox="0 0 1024 1024" version="1.1" xmlns="http://www.w3.org/2000/svg" p-id="1933" xmlns:xlink="http://www.w3.org/1999/xlink" width="64" height="64"><path d="M726.77272695 859.72727305h-409.09090869a51.17727305 51.17727305 0 0 1-51.13636347-51.13636436v-86.52272695h511.36363652v86.52272695c0 28.20681826-22.92954521 51.13636347-51.13636436 51.13636436m-409.09090869-695.4545461h409.09090869C754.97954521 164.27272695 777.90909131 187.20227305 777.90909131 215.40909131v445.2954539H266.54545479V215.40909131C266.54545479 187.20227305 289.475 164.27272695 317.68181826 164.27272695m409.09090869-61.36363564h-409.09090869A112.64318174 112.64318174 0 0 0 205.18181826 215.40909131v593.18181738c0 62.01818174 50.48181826 112.5 112.5 112.5h409.09090869c62.01818174 0 112.5-50.48181826 112.5-112.5v-593.18181738C839.27272695 153.39090869 788.79090869 102.90909131 726.77272695 102.90909131m-204.5454539 644.31818174a40.90909131 40.90909131 0 1 0 0.0204539 81.83863564A40.90909131 40.90909131 0 0 0 522.22727305 747.22727305" fill="#405469" p-id="1934"></path></svg>