<?xml version="1.0" standalone="no"?><!DOCTYPE svg PUBLIC "-//W3C//DTD SVG 1.1//EN" "http://www.w3.org/Graphics/SVG/1.1/DTD/svg11.dtd"><svg t="1664432529354" class="icon" viewBox="0 0 1024 1024" version="1.1" xmlns="http://www.w3.org/2000/svg" p-id="1625" xmlns:xlink="http://www.w3.org/1999/xlink" width="64" height="64"><path d="M462.16601562 707.38085938l-152.66601562-1e-8q-21.35742188-1.58203125-32.82714844-17.79785156t-13.84277343-35.99121093q2.37304688-19.77539063 13.84277343-32.43164063t32.82714844-14.23828125l152.66601563 0-1e-8-49.83398438-152.66601562-0.79101562q-21.35742188-1.58203125-32.82714844-15.02929688t-13.84277343-34.01367187q2.37304688-19.77539063 13.84277343-32.43164063t32.82714844-14.23828125l113.90625 0-105.99609375-186.67968749q-7.91015625-9.4921875-15.02929688-24.12597657t-6.32812499-32.03613281q3.95507813-22.1484375 15.82031249-35.99121094t44.29687501-17.79785156q18.984375 1.58203125 34.01367187 13.05175781t24.52148438 24.91699219l120.23437499 219.90234375 132.09960938-221.484375q9.4921875-13.44726563 24.52148438-23.73046875t34.01367187-12.65625q11.86523438 0.79101563 21.75292969 3.1640625t17.40234375 7.91015625 12.65625 15.8203125 7.51464843 26.89453125q0 22.93945313-15.8203125 43.50585938l-122.60742187 199.33593749 116.27929687 1e-8q20.56640625 1.58203125 32.43164063 14.23828125t13.44726562 32.43164062q-1.58203125 20.56640625-13.84277343 34.8046875t-32.82714844 15.8203125l-151.08398438 0.79101563 1e-8 48.25195312 151.87499999 0q20.56640625 1.58203125 32.43164063 15.8203125t13.44726563 34.01367188q-1.58203125 20.56640625-13.44726563 34.40917968t-32.43164062 15.42480469l-151.87500001-0.79101562 1e-8 83.84765624q-3.1640625 67.23632813-73.56445313 67.23632813-34.8046875 0-54.18457031-16.61132813t-20.96191406-50.625l0-82.265625z" fill="#405469" p-id="1626"></path></svg>