<?xml version="1.0" standalone="no"?><!DOCTYPE svg PUBLIC "-//W3C//DTD SVG 1.1//EN" "http://www.w3.org/Graphics/SVG/1.1/DTD/svg11.dtd"><svg t="1664432638855" class="icon" viewBox="0 0 1024 1024" version="1.1" xmlns="http://www.w3.org/2000/svg" p-id="2397" xmlns:xlink="http://www.w3.org/1999/xlink" width="64" height="64"><path d="M948.138667 672.768l-9.6-48h-107.264l-17.066667 47.658667-85.973333 0.170666a179165.44 179165.44 0 0 1 123.050666-295.168c6.997333-16.682667 19.413333-25.173333 37.717334-25.088 13.994667 0.128 36.821333 0.128 68.522666 0.042667L1024 672.64l-75.861333 0.128z m-92.714667-113.749333h69.12l-25.813333-120.32-43.306667 120.32zM301.226667 352.298667l86.442666 0.085333-133.632 320.426667-87.509333-0.085334a40569.557333 40569.557333 0 0 1-65.194667-254.122666c-4.266667-16.896-12.714667-28.714667-28.970666-34.304A2712.149333 2712.149333 0 0 0 0 361.173333V352.426667h138.112c23.893333 0 37.845333 11.562667 42.325333 35.285333 4.522667 23.765333 15.872 84.266667 34.133334 181.504L301.226667 352.298667z m205.226666 0.085333l-68.352 320.341333-82.261333-0.085333 68.266667-320.341333 82.346666 0.085333z m166.826667-5.930667c24.618667 0 55.637333 7.68 73.472 14.72l-14.421333 66.432c-16.128-6.485333-42.666667-15.232-64.981334-14.933333-32.426667 0.554667-52.48 14.165333-52.48 27.221333 0 21.248 34.816 31.957333 70.656 55.168 40.917333 26.453333 46.293333 50.218667 45.781334 76.032-0.554667 53.589333-45.781333 106.453333-141.184 106.453334-43.52-0.64-59.221333-4.309333-94.72-16.896l15.018666-69.333334c36.138667 15.146667 51.456 19.968 82.346667 19.968 28.288 0 52.565333-11.434667 52.778667-31.36 0.170667-14.165333-8.533333-21.205333-40.277334-38.698666-31.744-17.536-76.288-41.813333-75.690666-90.538667 0.725333-62.378667 59.818667-104.234667 143.744-104.234667z" fill="#405469" p-id="2398"></path></svg>